<?xml version="1.0" standalone="no"?>
<!DOCTYPE svg PUBLIC "-//W3C//DTD SVG 20010904//EN"
 "http://www.w3.org/TR/2001/REC-SVG-20010904/DTD/svg10.dtd">
<svg version="1.0" xmlns="http://www.w3.org/2000/svg"
 width="900.000000pt" height="931.000000pt" viewBox="0 0 900.000000 931.000000"
 preserveAspectRatio="xMidYMid meet">

<g transform="translate(0.000000,931.000000) scale(0.100000,-0.100000)"
fill="#000000" stroke="none">
<path d="M6978 9295 c-232 -33 -436 -111 -639 -246 -140 -93 -333 -290 -434
-444 -240 -363 -380 -779 -392 -1162 -10 -288 23 -474 142 -802 36 -101 64
-185 63 -186 -2 -2 -102 26 -223 61 -464 136 -720 175 -1105 169 -307 -5 -524
-37 -803 -121 -67 -20 -151 -45 -186 -55 l-64 -18 6 52 c4 29 27 121 52 206
57 195 66 273 67 551 1 320 -27 524 -103 749 -131 392 -343 667 -666 862 -384
232 -881 287 -1323 147 -290 -92 -545 -271 -788 -553 -284 -330 -478 -765
-558 -1252 -24 -145 -24 -430 0 -561 58 -317 210 -668 379 -877 203 -251 492
-437 782 -505 169 -39 284 -46 497 -26 106 9 208 20 226 23 l32 5 -96 -198
c-182 -377 -264 -612 -337 -969 -58 -280 -71 -410 -71 -705 -1 -244 2 -290 23
-404 22 -127 49 -226 89 -336 17 -47 18 -64 11 -115 -16 -99 -13 -291 5 -389
36 -188 120 -371 253 -547 221 -294 605 -587 1013 -774 199 -91 468 -182 607
-206 37 -6 80 -18 95 -25 15 -8 85 -69 155 -137 156 -149 229 -210 342 -286
315 -212 602 -260 917 -153 199 68 345 161 540 345 l111 105 283 142 c507 257
678 381 1098 795 135 133 233 239 290 315 308 409 407 644 419 1000 8 219 -26
380 -103 501 -33 52 -34 72 -15 280 32 349 -50 814 -216 1219 -57 141 -219
461 -268 530 -51 74 -80 130 -90 178 l-7 33 64 -8 c96 -12 301 -7 413 11 382
62 768 249 1011 491 122 121 207 247 303 447 112 232 183 471 210 703 13 110
6 366 -14 504 -79 554 -383 1067 -798 1344 -202 135 -485 245 -737 287 -110
18 -355 21 -462 5z m-1539 -3009 c185 -52 329 -134 470 -270 276 -266 499
-728 626 -1296 106 -477 122 -912 49 -1332 l-7 -38 110 49 c141 64 205 81 330
88 179 10 287 -25 399 -130 50 -46 74 -79 104 -141 56 -118 71 -190 77 -357 5
-126 2 -162 -17 -255 -29 -144 -69 -255 -144 -399 -157 -302 -335 -522 -682
-844 -323 -300 -635 -522 -944 -673 -221 -108 -249 -126 -410 -263 -174 -149
-242 -198 -340 -249 -248 -127 -494 -140 -755 -40 -155 60 -313 166 -510 345
-49 44 -127 112 -172 150 l-83 70 -129 25 c-341 65 -656 220 -1061 523 -258
193 -507 477 -626 713 -113 225 -124 495 -27 689 111 221 394 353 668 311 38
-6 71 -9 73 -7 3 3 -18 67 -46 142 -60 165 -93 298 -124 493 -19 126 -22 183
-22 440 0 322 9 419 65 694 110 540 320 961 630 1262 188 182 361 274 568 304
296 43 568 -92 865 -430 52 -60 58 -64 69 -46 39 61 142 183 219 258 132 130
246 200 378 234 87 22 282 12 399 -20z"/>
<path d="M4935 5241 c-178 -81 -294 -446 -336 -1056 -20 -286 -1 -501 66 -760
19 -76 33 -140 30 -143 -2 -3 -92 -8 -200 -11 -153 -5 -195 -3 -195 7 0 6 13
73 30 146 43 194 53 337 47 646 -8 403 -56 670 -156 875 -59 121 -113 185
-187 221 -92 45 -180 24 -269 -64 -146 -146 -235 -448 -235 -800 0 -150 29
-436 60 -592 46 -225 90 -340 197 -507 36 -58 62 -108 57 -111 -5 -4 -38 -26
-72 -50 -34 -23 -62 -45 -62 -47 0 -3 30 7 68 22 102 40 284 92 412 118 337
69 637 58 960 -35 58 -16 109 -30 115 -30 5 0 -12 19 -38 43 l-49 42 55 88
c70 111 112 212 148 356 51 202 63 324 63 651 0 259 -3 309 -21 410 -59 318
-174 522 -326 578 -70 27 -109 27 -162 3z m161 -60 c96 -58 182 -239 228 -476
59 -303 54 -765 -10 -1085 -37 -185 -118 -388 -170 -429 -27 -21 -88 -29 -98
-13 -3 5 10 41 29 80 19 39 39 99 46 132 14 74 7 215 -15 287 -19 60 -70 138
-109 167 -37 27 -94 27 -133 -1 -68 -49 -124 -218 -124 -376 0 -83 -15 -63
-36 48 -20 105 -28 576 -14 760 21 260 57 482 106 636 73 233 189 338 300 270z
m-1070 -70 c91 -56 157 -218 213 -526 51 -279 75 -662 53 -843 l-7 -53 -53 60
c-80 92 -144 104 -217 39 -48 -41 -82 -111 -102 -206 -21 -105 -12 -198 33
-330 19 -57 34 -105 32 -107 -2 -1 -17 -5 -35 -8 -28 -6 -36 -2 -63 31 -42 51
-112 191 -144 287 -137 421 -161 1019 -54 1363 71 232 227 364 344 293z"/>
<path d="M4410 3023 c-336 -36 -627 -186 -716 -368 -26 -55 -29 -69 -29 -165
0 -87 4 -113 22 -153 34 -73 77 -121 151 -170 123 -80 260 -121 474 -139 386
-33 811 71 1004 246 103 93 145 202 123 320 -50 279 -361 439 -840 434 -85 0
-170 -3 -189 -5z"/>
<path d="M6660 2744 c-98 -20 -238 -69 -228 -80 3 -2 49 5 104 15 54 11 100
18 101 17 7 -6 -72 -180 -113 -247 -119 -197 -329 -436 -518 -589 -307 -248
-715 -442 -1081 -514 -208 -40 -307 -50 -530 -49 -456 0 -794 98 -1141 332
-213 143 -419 349 -590 588 -101 141 -130 193 -113 203 24 16 117 23 226 18
110 -5 116 2 19 28 -163 44 -382 -21 -513 -153 -67 -67 -84 -102 -31 -61 110
83 221 148 233 136 2 -1 38 -55 80 -118 178 -265 341 -448 570 -640 77 -65
154 -133 171 -151 47 -51 157 -203 284 -394 119 -179 196 -277 331 -419 148
-157 291 -245 464 -287 126 -30 333 -30 460 0 299 72 521 286 754 726 279 530
296 554 476 708 234 200 507 564 608 811 l32 78 55 -6 c30 -3 91 -16 135 -30
44 -13 82 -22 85 -19 10 9 -66 63 -110 78 -47 16 -176 27 -220 19z m-1390
-1594 c36 -6 98 -26 138 -45 66 -31 73 -37 66 -57 -50 -164 -312 -451 -496
-544 -83 -42 -216 -75 -325 -81 -206 -12 -390 42 -551 161 -83 62 -237 215
-296 296 -55 74 -56 72 49 120 109 50 186 64 340 64 123 -1 151 -4 229 -28 50
-15 136 -51 193 -80 57 -29 103 -49 103 -45 0 5 -21 28 -46 52 l-45 44 33 28
c56 47 204 101 323 118 61 8 222 7 285 -3z"/>
</g>
</svg>
